# xmcd CD database file
#
# Track frame offsets:
#	150
#	33141
#	51428
#	72470
#	96048
#	115577
#	124978
#	147362
#	174309
#	211267
#	227756
#	254816
#	279751
#	302573
#	322125
#
# Disc length: 4702 seconds
#
# Revision: 3
# Processed by: cddbd v1.5.2PL0 Copyright (c) Steve Scherf et al.
# Submitted via: CDex 1.51
#
DISCID=da125c0f
DTITLE=Mike Gauthier - Eye to Eye
DYEAR=2004
DGENRE=Jazz
TTITLE0=Sweet and Lovely
TTITLE1=If I knew then what I know now
TTITLE2=What Four
TTITLE3=Shacktime
TTITLE4=Aux Quat
TTITLE5=Chelsea Bridge
TTITLE6=To The Pointe
TTITLE7=Parallel
TTITLE8=Peel Me A Grape
TTITLE9=A Friend Indeed
TTITLE10=Sweet Lorraine
TTITLE11=Meeting Miss Nadine
TTITLE12=Crackerjack Take 1
TTITLE13=Crackerjack Take 2
TTITLE14=I Got A Woman
EXTD=YEAR: 2004
EXTT0=
EXTT1=
EXTT2=
EXTT3=
EXTT4=
EXTT5=
EXTT6=
EXTT7=
EXTT8=
EXTT9=
EXTT10=
EXTT11=
EXTT12=
EXTT13=
EXTT14=
PLAYORDER=
